<?xml version="1.0" encoding="UTF-8"?>
<svg id="Layer_1" data-name="Layer 1" xmlns="http://www.w3.org/2000/svg" xmlns:xlink="http://www.w3.org/1999/xlink" version="1.1" viewBox="0 0 600 600">
  <defs>
    <style>
      .cls-1 {
        fill: url(#_未命名的渐变_86);
      }

      .cls-1, .cls-2, .cls-3, .cls-4, .cls-5, .cls-6 {
        stroke-width: 0px;
      }

      .cls-2 {
        fill: url(#_未命名的渐变_90);
      }

      .cls-3 {
        fill: url(#_未命名的渐变_51);
      }

      .cls-7 {
        clip-path: url(#clippath);
      }

      .cls-4 {
        fill: none;
      }

      .cls-5 {
        fill: url(#_未命名的渐变_90-2);
      }

      .cls-8 {
        clip-path: url(#clippath-1);
      }

      .cls-9 {
        clip-path: url(#clippath-4);
      }

      .cls-10 {
        clip-path: url(#clippath-3);
      }

      .cls-11 {
        clip-path: url(#clippath-2);
      }

      .cls-12 {
        clip-path: url(#clippath-7);
      }

      .cls-13 {
        clip-path: url(#clippath-8);
      }

      .cls-14 {
        clip-path: url(#clippath-6);
      }

      .cls-15 {
        clip-path: url(#clippath-5);
      }

      .cls-16 {
        clip-path: url(#clippath-9);
      }

      .cls-17 {
        clip-path: url(#clippath-20);
      }

      .cls-18 {
        clip-path: url(#clippath-21);
      }

      .cls-19 {
        clip-path: url(#clippath-24);
      }

      .cls-20 {
        clip-path: url(#clippath-23);
      }

      .cls-21 {
        clip-path: url(#clippath-22);
      }

      .cls-22 {
        clip-path: url(#clippath-25);
      }

      .cls-23 {
        clip-path: url(#clippath-26);
      }

      .cls-24 {
        clip-path: url(#clippath-14);
      }

      .cls-25 {
        clip-path: url(#clippath-13);
      }

      .cls-26 {
        clip-path: url(#clippath-12);
      }

      .cls-27 {
        clip-path: url(#clippath-10);
      }

      .cls-28 {
        clip-path: url(#clippath-15);
      }

      .cls-29 {
        clip-path: url(#clippath-17);
      }

      .cls-30 {
        clip-path: url(#clippath-16);
      }

      .cls-31 {
        clip-path: url(#clippath-19);
      }

      .cls-32 {
        clip-path: url(#clippath-11);
      }

      .cls-33 {
        clip-path: url(#clippath-18);
      }

      .cls-6 {
        fill: #fcfdfd;
      }
    </style>
    <linearGradient id="_未命名的渐变_86" data-name="未命名的渐变 86" x1="209.91" y1="413.59" x2="419.56" y2="337.28" gradientUnits="userSpaceOnUse">
      <stop offset="0" stop-color="#7593cb"/>
      <stop offset=".08" stop-color="#778ec7"/>
      <stop offset=".68" stop-color="#8a6bac"/>
      <stop offset="1" stop-color="#925fa3"/>
    </linearGradient>
    <clipPath id="clippath">
      <circle class="cls-4" cx="169.42" cy="182.14" r="17.62" transform="translate(-79.33 181.57) rotate(-46.94)"/>
    </clipPath>
    <linearGradient id="_未命名的渐变_90" data-name="未命名的渐变 90" x1="49.33" y1="245.86" x2="395.64" y2="245.86" gradientUnits="userSpaceOnUse">
      <stop offset="0" stop-color="#3ea1db"/>
      <stop offset=".35" stop-color="#5c80c1"/>
      <stop offset=".77" stop-color="#7c5da6"/>
      <stop offset="1" stop-color="#88519c"/>
    </linearGradient>
    <clipPath id="clippath-1">
      <circle class="cls-4" cx="105.6" cy="194.31" r="12.32" transform="translate(-114.4 216.82) rotate(-67.32)"/>
    </clipPath>
    <clipPath id="clippath-2">
      <circle class="cls-4" cx="66.57" cy="241.39" r="7.99"/>
    </clipPath>
    <clipPath id="clippath-3">
      <circle class="cls-4" cx="146.71" cy="244.01" r="7.84" transform="translate(-134.95 285.61) rotate(-67.39)"/>
    </clipPath>
    <clipPath id="clippath-4">
      <circle class="cls-4" cx="111.05" cy="138.33" r="7.84" transform="translate(-2.55 2.09) rotate(-1.07)"/>
    </clipPath>
    <clipPath id="clippath-5">
      <circle class="cls-4" cx="86.18" cy="281.19" r="5.43"/>
    </clipPath>
    <clipPath id="clippath-6">
      <path class="cls-4" d="M125.71,267.32c-2.21,0-4,1.79-4,4s1.79,4,4,4,4-1.79,4-4-1.79-4-4-4Z"/>
    </clipPath>
    <clipPath id="clippath-7">
      <circle class="cls-4" cx="110.7" cy="304.82" r="4"/>
    </clipPath>
    <clipPath id="clippath-8">
      <path class="cls-4" d="M191.78,346.58c-2.21,0-4,1.79-4,4s1.79,4,4,4,4-1.79,4-4-1.79-4-4-4Z"/>
    </clipPath>
    <clipPath id="clippath-9">
      <circle class="cls-4" cx="147.26" cy="125.43" r="4"/>
    </clipPath>
    <clipPath id="clippath-10">
      <circle class="cls-4" cx="63.44" cy="200.59" r="4"/>
    </clipPath>
    <clipPath id="clippath-11">
      <path class="cls-4" d="M99.23,245.39c-2.21,0-4,1.79-4,4s1.79,4,4,4,4-1.79,4-4-1.79-4-4-4Z"/>
    </clipPath>
    <clipPath id="clippath-12">
      <circle class="cls-4" cx="148.07" cy="329.41" r="7.99" transform="translate(-187.17 463.75) rotate(-87.63)"/>
    </clipPath>
    <clipPath id="clippath-13">
      <circle class="cls-4" cx="229.79" cy="167.3" r="7.99"/>
    </clipPath>
    <clipPath id="clippath-14">
      <path class="cls-4" d="M182.45,131.29c4.06,0,7.36-3.29,7.36-7.36s-3.3-7.36-7.36-7.36-7.36,3.3-7.36,7.36,3.3,7.36,7.36,7.36Z"/>
    </clipPath>
    <clipPath id="clippath-15">
      <circle class="cls-4" cx="221.71" cy="125.86" r="4"/>
    </clipPath>
    <clipPath id="clippath-16">
      <circle class="cls-4" cx="258.67" cy="138.02" r="4"/>
    </clipPath>
    <clipPath id="clippath-17">
      <path class="cls-4" d="M308.11,202.42c-4.41,0-7.99,3.58-7.99,7.99s3.58,7.99,7.99,7.99,7.99-3.58,7.99-7.99-3.58-7.99-7.99-7.99Z"/>
    </clipPath>
    <clipPath id="clippath-18">
      <path class="cls-4" d="M303.53,158c0-3-2.43-5.43-5.43-5.43s-5.43,2.43-5.43,5.43,2.43,5.43,5.43,5.43,5.43-2.43,5.43-5.43Z"/>
    </clipPath>
    <clipPath id="clippath-19">
      <circle class="cls-4" cx="262.22" cy="192.43" r="4"/>
    </clipPath>
    <clipPath id="clippath-20">
      <path class="cls-4" d="M340.52,185.64c-2.21,0-4,1.79-4,4s1.79,4,4,4,4-1.79,4-4-1.79-4-4-4Z"/>
    </clipPath>
    <clipPath id="clippath-21">
      <path class="cls-4" d="M368.69,219.16c-3,0-5.43,2.43-5.43,5.43s2.43,5.43,5.43,5.43,5.43-2.43,5.43-5.43-2.43-5.43-5.43-5.43Z"/>
    </clipPath>
    <clipPath id="clippath-22">
      <circle class="cls-4" cx="382.11" cy="256.1" r="4"/>
    </clipPath>
    <clipPath id="clippath-23">
      <path class="cls-4" d="M276.1,235.38c-3,0-5.43,2.43-5.43,5.43s2.43,5.43,5.43,5.43,5.43-2.43,5.43-5.43-2.43-5.43-5.43-5.43Z"/>
    </clipPath>
    <clipPath id="clippath-24">
      <circle class="cls-4" cx="184.9" cy="279.45" r="6.54"/>
    </clipPath>
    <clipPath id="clippath-25">
      <circle class="cls-4" cx="81.49" cy="163.15" r="5.43"/>
    </clipPath>
    <clipPath id="clippath-26">
      <path class="cls-4" d="M227.29,225.89c-6.8,0-12.32,5.52-12.32,12.32s5.52,12.32,12.32,12.32,12.32-5.52,12.32-12.32-5.52-12.32-12.32-12.32Z"/>
    </clipPath>
    <linearGradient id="_未命名的渐变_90-2" data-name="未命名的渐变 90" y1="245.39" y2="245.39" xlink:href="#_未命名的渐变_90"/>
    <linearGradient id="_未命名的渐变_51" data-name="未命名的渐变 51" x1="447.83" y1="299.71" x2="529.03" y2="159.07" gradientUnits="userSpaceOnUse">
      <stop offset="0" stop-color="#9d6dab"/>
      <stop offset=".26" stop-color="#7e559f"/>
      <stop offset=".55" stop-color="#634095"/>
      <stop offset=".8" stop-color="#52338f"/>
      <stop offset="1" stop-color="#4d2f8d"/>
    </linearGradient>
  </defs>
  <path class="cls-1" d="M341.9,260.31c31.92,0,32.36,20.86,40.64,26.98,11.78,8.72,30.55-7.4,26.22,52.21,0,0,1.99,65.87-43.85,117.71-9.45,10.69-24.19,25.27-46.57,30.02-11.46,2.43-53.9,13.21-89.39-32.62-17.09-22.07-16.88-44.6-17.08-51.96-.68-25.69,21.18-142.34,130.03-142.34Z"/>
  <g class="cls-7">
    <path class="cls-2" d="M394.38,258.37c3.26,11.35-.45,20.63-3.82,36.76-3.92,18.82-11.92,35.45-40.94,59.68-37.13,31-112.53,32.38-205.06-18.04-74.7-40.71-126.58-107.35-73.56-181.81,21.74-30.53,100.88-57.25,187.43-25.66,11.02,4.02,112.35,46.94,135.95,129.08Z"/>
  </g>
  <g class="cls-8">
    <path class="cls-2" d="M394.38,258.37c3.26,11.35-.45,20.63-3.82,36.76-3.92,18.82-11.92,35.45-40.94,59.68-37.13,31-112.53,32.38-205.06-18.04-74.7-40.71-126.58-107.35-73.56-181.81,21.74-30.53,100.88-57.25,187.43-25.66,11.02,4.02,112.35,46.94,135.95,129.08Z"/>
  </g>
  <g class="cls-11">
    <path class="cls-2" d="M394.38,258.37c3.26,11.35-.45,20.63-3.82,36.76-3.92,18.82-11.92,35.45-40.94,59.68-37.13,31-112.53,32.38-205.06-18.04-74.7-40.71-126.58-107.35-73.56-181.81,21.74-30.53,100.88-57.25,187.43-25.66,11.02,4.02,112.35,46.94,135.95,129.08Z"/>
  </g>
  <g class="cls-10">
    <path class="cls-2" d="M394.38,258.37c3.26,11.35-.45,20.63-3.82,36.76-3.92,18.82-11.92,35.45-40.94,59.68-37.13,31-112.53,32.38-205.06-18.04-74.7-40.71-126.58-107.35-73.56-181.81,21.74-30.53,100.88-57.25,187.43-25.66,11.02,4.02,112.35,46.94,135.95,129.08Z"/>
  </g>
  <g class="cls-9">
    <path class="cls-2" d="M394.38,258.37c3.26,11.35-.45,20.63-3.82,36.76-3.92,18.82-11.92,35.45-40.94,59.68-37.13,31-112.53,32.38-205.06-18.04-74.7-40.71-126.58-107.35-73.56-181.81,21.74-30.53,100.88-57.25,187.43-25.66,11.02,4.02,112.35,46.94,135.95,129.08Z"/>
  </g>
  <g class="cls-15">
    <path class="cls-2" d="M394.38,258.37c3.26,11.35-.45,20.63-3.82,36.76-3.92,18.82-11.92,35.45-40.94,59.68-37.13,31-112.53,32.38-205.06-18.04-74.7-40.71-126.58-107.35-73.56-181.81,21.74-30.53,100.88-57.25,187.43-25.66,11.02,4.02,112.35,46.94,135.95,129.08Z"/>
  </g>
  <g class="cls-14">
    <path class="cls-2" d="M394.38,258.37c3.26,11.35-.45,20.63-3.82,36.76-3.92,18.82-11.92,35.45-40.94,59.68-37.13,31-112.53,32.38-205.06-18.04-74.7-40.71-126.58-107.35-73.56-181.81,21.74-30.53,100.88-57.25,187.43-25.66,11.02,4.02,112.35,46.94,135.95,129.08Z"/>
  </g>
  <g class="cls-12">
    <path class="cls-2" d="M394.38,258.37c3.26,11.35-.45,20.63-3.82,36.76-3.92,18.82-11.92,35.45-40.94,59.68-37.13,31-112.53,32.38-205.06-18.04-74.7-40.71-126.58-107.35-73.56-181.81,21.74-30.53,100.88-57.25,187.43-25.66,11.02,4.02,112.35,46.94,135.95,129.08Z"/>
  </g>
  <g class="cls-13">
    <path class="cls-2" d="M394.38,258.37c3.26,11.35-.45,20.63-3.82,36.76-3.92,18.82-11.92,35.45-40.94,59.68-37.13,31-112.53,32.38-205.06-18.04-74.7-40.71-126.58-107.35-73.56-181.81,21.74-30.53,100.88-57.25,187.43-25.66,11.02,4.02,112.35,46.94,135.95,129.08Z"/>
  </g>
  <g class="cls-16">
    <path class="cls-2" d="M394.38,258.37c3.26,11.35-.45,20.63-3.82,36.76-3.92,18.82-11.92,35.45-40.94,59.68-37.13,31-112.53,32.38-205.06-18.04-74.7-40.71-126.58-107.35-73.56-181.81,21.74-30.53,100.88-57.25,187.43-25.66,11.02,4.02,112.35,46.94,135.95,129.08Z"/>
  </g>
  <g class="cls-27">
    <path class="cls-2" d="M394.38,258.37c3.26,11.35-.45,20.63-3.82,36.76-3.92,18.82-11.92,35.45-40.94,59.68-37.13,31-112.53,32.38-205.06-18.04-74.7-40.71-126.58-107.35-73.56-181.81,21.74-30.53,100.88-57.25,187.43-25.66,11.02,4.02,112.35,46.94,135.95,129.08Z"/>
  </g>
  <g class="cls-32">
    <path class="cls-2" d="M394.38,258.37c3.26,11.35-.45,20.63-3.82,36.76-3.92,18.82-11.92,35.45-40.94,59.68-37.13,31-112.53,32.38-205.06-18.04-74.7-40.71-126.58-107.35-73.56-181.81,21.74-30.53,100.88-57.25,187.43-25.66,11.02,4.02,112.35,46.94,135.95,129.08Z"/>
  </g>
  <g class="cls-26">
    <path class="cls-2" d="M394.38,258.37c3.26,11.35-.45,20.63-3.82,36.76-3.92,18.82-11.92,35.45-40.94,59.68-37.13,31-112.53,32.38-205.06-18.04-74.7-40.71-126.58-107.35-73.56-181.81,21.74-30.53,100.88-57.25,187.43-25.66,11.02,4.02,112.35,46.94,135.95,129.08Z"/>
  </g>
  <g class="cls-25">
    <path class="cls-2" d="M394.38,258.37c3.26,11.35-.45,20.63-3.82,36.76-3.92,18.82-11.92,35.45-40.94,59.68-37.13,31-112.53,32.38-205.06-18.04-74.7-40.71-126.58-107.35-73.56-181.81,21.74-30.53,100.88-57.25,187.43-25.66,11.02,4.02,112.35,46.94,135.95,129.08Z"/>
  </g>
  <g class="cls-24">
    <path class="cls-2" d="M394.38,258.37c3.26,11.35-.45,20.63-3.82,36.76-3.92,18.82-11.92,35.45-40.94,59.68-37.13,31-112.53,32.38-205.06-18.04-74.7-40.71-126.58-107.35-73.56-181.81,21.74-30.53,100.88-57.25,187.43-25.66,11.02,4.02,112.35,46.94,135.95,129.08Z"/>
  </g>
  <g class="cls-28">
    <path class="cls-2" d="M394.38,258.37c3.26,11.35-.45,20.63-3.82,36.76-3.92,18.82-11.92,35.45-40.94,59.68-37.13,31-112.53,32.38-205.06-18.04-74.7-40.71-126.58-107.35-73.56-181.81,21.74-30.53,100.88-57.25,187.43-25.66,11.02,4.02,112.35,46.94,135.95,129.08Z"/>
  </g>
  <g class="cls-30">
    <path class="cls-2" d="M394.38,258.37c3.26,11.35-.45,20.63-3.82,36.76-3.92,18.82-11.92,35.45-40.94,59.68-37.13,31-112.53,32.38-205.06-18.04-74.7-40.71-126.58-107.35-73.56-181.81,21.74-30.53,100.88-57.25,187.43-25.66,11.02,4.02,112.35,46.94,135.95,129.08Z"/>
  </g>
  <g class="cls-29">
    <path class="cls-2" d="M394.38,258.37c3.26,11.35-.45,20.63-3.82,36.76-3.92,18.82-11.92,35.45-40.94,59.68-37.13,31-112.53,32.38-205.06-18.04-74.7-40.71-126.58-107.35-73.56-181.81,21.74-30.53,100.88-57.25,187.43-25.66,11.02,4.02,112.35,46.94,135.95,129.08Z"/>
  </g>
  <g class="cls-33">
    <path class="cls-2" d="M394.38,258.37c3.26,11.35-.45,20.63-3.82,36.76-3.92,18.82-11.92,35.45-40.94,59.68-37.13,31-112.53,32.38-205.06-18.04-74.7-40.71-126.58-107.35-73.56-181.81,21.74-30.53,100.88-57.25,187.43-25.66,11.02,4.02,112.35,46.94,135.95,129.08Z"/>
  </g>
  <g class="cls-31">
    <path class="cls-2" d="M394.38,258.37c3.26,11.35-.45,20.63-3.82,36.76-3.92,18.82-11.92,35.45-40.94,59.68-37.13,31-112.53,32.38-205.06-18.04-74.7-40.71-126.58-107.35-73.56-181.81,21.74-30.53,100.88-57.25,187.43-25.66,11.02,4.02,112.35,46.94,135.95,129.08Z"/>
  </g>
  <g class="cls-17">
    <path class="cls-2" d="M394.38,258.37c3.26,11.35-.45,20.63-3.82,36.76-3.92,18.82-11.92,35.45-40.94,59.68-37.13,31-112.53,32.38-205.06-18.04-74.7-40.71-126.58-107.35-73.56-181.81,21.74-30.53,100.88-57.25,187.43-25.66,11.02,4.02,112.35,46.94,135.95,129.08Z"/>
  </g>
  <g class="cls-18">
    <path class="cls-2" d="M394.38,258.37c3.26,11.35-.45,20.63-3.82,36.76-3.92,18.82-11.92,35.45-40.94,59.68-37.13,31-112.53,32.38-205.06-18.04-74.7-40.71-126.58-107.35-73.56-181.81,21.74-30.53,100.88-57.25,187.43-25.66,11.02,4.02,112.35,46.94,135.95,129.08Z"/>
  </g>
  <g class="cls-21">
    <path class="cls-2" d="M394.38,258.37c3.26,11.35-.45,20.63-3.82,36.76-3.92,18.82-11.92,35.45-40.94,59.68-37.13,31-112.53,32.38-205.06-18.04-74.7-40.71-126.58-107.35-73.56-181.81,21.74-30.53,100.88-57.25,187.43-25.66,11.02,4.02,112.35,46.94,135.95,129.08Z"/>
  </g>
  <g class="cls-20">
    <path class="cls-2" d="M394.38,258.37c3.26,11.35-.45,20.63-3.82,36.76-3.92,18.82-11.92,35.45-40.94,59.68-37.13,31-112.53,32.38-205.06-18.04-74.7-40.71-126.58-107.35-73.56-181.81,21.74-30.53,100.88-57.25,187.43-25.66,11.02,4.02,112.35,46.94,135.95,129.08Z"/>
  </g>
  <g class="cls-19">
    <path class="cls-2" d="M394.38,258.37c3.26,11.35-.45,20.63-3.82,36.76-3.92,18.82-11.92,35.45-40.94,59.68-37.13,31-112.53,32.38-205.06-18.04-74.7-40.71-126.58-107.35-73.56-181.81,21.74-30.53,100.88-57.25,187.43-25.66,11.02,4.02,112.35,46.94,135.95,129.08Z"/>
  </g>
  <g class="cls-22">
    <path class="cls-2" d="M394.38,258.37c3.26,11.35-.45,20.63-3.82,36.76-3.92,18.82-11.92,35.45-40.94,59.68-37.13,31-112.53,32.38-205.06-18.04-74.7-40.71-126.58-107.35-73.56-181.81,21.74-30.53,100.88-57.25,187.43-25.66,11.02,4.02,112.35,46.94,135.95,129.08Z"/>
  </g>
  <g class="cls-23">
    <path class="cls-5" d="M394.38,257.89c3.26,11.35-.45,20.63-3.82,36.76-3.92,18.82-11.92,35.45-40.94,59.68-37.13,31-112.53,32.38-205.06-18.04-74.7-40.71-126.58-107.35-73.56-181.81,21.74-30.53,100.88-57.25,187.43-25.66,11.02,4.02,112.35,46.94,135.95,129.07Z"/>
  </g>
  <g>
    <circle class="cls-6" cx="292.67" cy="313.95" r="13.86" transform="translate(-34.74 591.48) rotate(-87.29)"/>
    <circle class="cls-6" cx="280.19" cy="367.86" r="7.37"/>
    <circle class="cls-6" cx="243.61" cy="365.1" r="4"/>
    <path class="cls-6" d="M361.77,327.52c-1.46,1.12-1.73,3.22-.6,4.67,1.12,1.46,3.22,1.73,4.67.6,1.46-1.12,1.73-3.22.6-4.67-1.12-1.46-3.22-1.73-4.67-.6Z"/>
    <path class="cls-6" d="M377.71,303.36c-1.12-1.46-3.22-1.73-4.67-.6-1.46,1.12-1.73,3.22-.6,4.67,1.12,1.46,3.22,1.73,4.67.6,1.46-1.12,1.73-3.22.6-4.67Z"/>
    <path class="cls-6" d="M321.17,356.48c-1.46,1.12-1.73,3.22-.6,4.67,1.12,1.46,3.22,1.73,4.67.6s1.73-3.22.6-4.67c-1.12-1.46-3.22-1.73-4.67-.6Z"/>
    <circle class="cls-6" cx="332.31" cy="286.06" r="6.73"/>
  </g>
  <path class="cls-3" d="M431.21,269.69s6.56-4.99-3.59-8.47c0,0-11.91-2.37-7.95-23.1,0,0,7.09-53.33,44.07-79.01,0,0,43.73-37.77,82.82,21.62,15.38,23.36,10.99,41.66,9.95,52.51-.45,4.74-11.71,55-75.43,67.25,0,0-18.49,5.38-40.28-4.83,0,0-20.61-13.71-9.59-25.97Z"/>
</svg>