<?xml version="1.0" encoding="UTF-8"?>
<svg id="Layer_1" data-name="Layer 1" xmlns="http://www.w3.org/2000/svg" xmlns:xlink="http://www.w3.org/1999/xlink" version="1.1" viewBox="0 0 640 400">
  <defs>
    <style>
      .cls-1 {
        fill: url(#_未命名的渐变_86);
      }

      .cls-1, .cls-2, .cls-3, .cls-4, .cls-5 {
        stroke-width: 0px;
      }

      .cls-2 {
        fill: url(#_未命名的渐变_90);
      }

      .cls-3 {
        fill: url(#_未命名的渐变_51);
      }

      .cls-6 {
        clip-path: url(#clippath);
      }

      .cls-4 {
        fill: none;
      }

      .cls-7 {
        fill: #604ea0;
        font-family: MetroSungRegular-B5pc-H, 'MetroSung Demo2';
        font-size: 90px;
      }

      .cls-5 {
        fill: url(#_未命名的渐变_90-2);
      }

      .cls-8 {
        clip-path: url(#clippath-1);
      }

      .cls-9 {
        clip-path: url(#clippath-4);
      }

      .cls-10 {
        clip-path: url(#clippath-3);
      }

      .cls-11 {
        clip-path: url(#clippath-2);
      }

      .cls-12 {
        clip-path: url(#clippath-7);
      }

      .cls-13 {
        clip-path: url(#clippath-8);
      }

      .cls-14 {
        clip-path: url(#clippath-6);
      }

      .cls-15 {
        clip-path: url(#clippath-5);
      }

      .cls-16 {
        clip-path: url(#clippath-9);
      }

      .cls-17 {
        clip-path: url(#clippath-20);
      }

      .cls-18 {
        clip-path: url(#clippath-21);
      }

      .cls-19 {
        clip-path: url(#clippath-24);
      }

      .cls-20 {
        clip-path: url(#clippath-23);
      }

      .cls-21 {
        clip-path: url(#clippath-22);
      }

      .cls-22 {
        clip-path: url(#clippath-25);
      }

      .cls-23 {
        clip-path: url(#clippath-26);
      }

      .cls-24 {
        clip-path: url(#clippath-14);
      }

      .cls-25 {
        clip-path: url(#clippath-13);
      }

      .cls-26 {
        clip-path: url(#clippath-12);
      }

      .cls-27 {
        clip-path: url(#clippath-10);
      }

      .cls-28 {
        clip-path: url(#clippath-15);
      }

      .cls-29 {
        clip-path: url(#clippath-17);
      }

      .cls-30 {
        clip-path: url(#clippath-16);
      }

      .cls-31 {
        clip-path: url(#clippath-19);
      }

      .cls-32 {
        clip-path: url(#clippath-11);
      }

      .cls-33 {
        clip-path: url(#clippath-18);
      }
    </style>
    <clipPath id="clippath">
      <circle class="cls-4" cx="106.21" cy="97.6" r="13.41" transform="translate(-22.91 161.9) rotate(-69.05)"/>
    </clipPath>
    <linearGradient id="_未命名的渐变_90" data-name="未命名的渐变 90" x1="14.81" y1="146.09" x2="278.37" y2="146.09" gradientUnits="userSpaceOnUse">
      <stop offset="0" stop-color="#39a4dc"/>
      <stop offset=".33" stop-color="#5687c7"/>
      <stop offset=".76" stop-color="#7967af"/>
      <stop offset="1" stop-color="#865ba6"/>
    </linearGradient>
    <clipPath id="clippath-1">
      <circle class="cls-4" cx="57.63" cy="106.86" r="9.38" transform="translate(-11.66 7.17) rotate(-6.46)"/>
    </clipPath>
    <clipPath id="clippath-2">
      <circle class="cls-4" cx="27.93" cy="142.69" r="6.08" transform="translate(-114.53 113.6) rotate(-67.38)"/>
    </clipPath>
    <clipPath id="clippath-3">
      <circle class="cls-4" cx="88.92" cy="144.68" r="5.96" transform="translate(-78.78 171.46) rotate(-67.5)"/>
    </clipPath>
    <clipPath id="clippath-4">
      <circle class="cls-4" cx="61.78" cy="64.25" r="5.96" transform="translate(-14.99 18.97) rotate(-15.59)"/>
    </clipPath>
    <clipPath id="clippath-5">
      <circle class="cls-4" cx="42.85" cy="172.98" r="4.13"/>
    </clipPath>
    <clipPath id="clippath-6">
      <circle class="cls-4" cx="72.94" cy="165.47" r="3.04"/>
    </clipPath>
    <clipPath id="clippath-7">
      <circle class="cls-4" cx="61.51" cy="190.96" r="3.04"/>
    </clipPath>
    <clipPath id="clippath-8">
      <path class="cls-4" d="M123.22,222.74c-1.68,0-3.04,1.36-3.04,3.04s1.36,3.04,3.04,3.04,3.04-1.36,3.04-3.04-1.36-3.04-3.04-3.04Z"/>
    </clipPath>
    <clipPath id="clippath-9">
      <circle class="cls-4" cx="89.34" cy="54.44" r="3.04"/>
    </clipPath>
    <clipPath id="clippath-10">
      <path class="cls-4" d="M25.55,114.68c1.68,0,3.04-1.36,3.04-3.04s-1.36-3.04-3.04-3.04-3.04,1.36-3.04,3.04,1.36,3.04,3.04,3.04Z"/>
    </clipPath>
    <clipPath id="clippath-11">
      <path class="cls-4" d="M52.79,145.73c-1.68,0-3.04,1.36-3.04,3.04s1.36,3.04,3.04,3.04,3.04-1.36,3.04-3.04-1.36-3.04-3.04-3.04Z"/>
    </clipPath>
    <clipPath id="clippath-12">
      <circle class="cls-4" cx="89.95" cy="209.68" r="6.08" transform="translate(-45.77 26.28) rotate(-13.28)"/>
    </clipPath>
    <clipPath id="clippath-13">
      <circle class="cls-4" cx="152.15" cy="86.3" r="6.08"/>
    </clipPath>
    <clipPath id="clippath-14">
      <path class="cls-4" d="M116.12,58.9c3.09,0,5.6-2.51,5.6-5.6s-2.51-5.6-5.6-5.6-5.6,2.51-5.6,5.6,2.51,5.6,5.6,5.6Z"/>
    </clipPath>
    <clipPath id="clippath-15">
      <circle class="cls-4" cx="146" cy="54.77" r="3.04"/>
    </clipPath>
    <clipPath id="clippath-16">
      <path class="cls-4" d="M177.17,64.02c0-1.68-1.36-3.04-3.04-3.04s-3.04,1.36-3.04,3.04,1.36,3.04,3.04,3.04,3.04-1.36,3.04-3.04Z"/>
    </clipPath>
    <clipPath id="clippath-17">
      <path class="cls-4" d="M211.75,113.03c-3.36,0-6.08,2.72-6.08,6.08s2.72,6.08,6.08,6.08,6.08-2.72,6.08-6.08-2.72-6.08-6.08-6.08Z"/>
    </clipPath>
    <clipPath id="clippath-18">
      <path class="cls-4" d="M208.27,79.23c0-2.28-1.85-4.13-4.13-4.13s-4.13,1.85-4.13,4.13,1.85,4.13,4.13,4.13,4.13-1.85,4.13-4.13Z"/>
    </clipPath>
    <clipPath id="clippath-19">
      <circle class="cls-4" cx="176.83" cy="105.43" r="3.04"/>
    </clipPath>
    <clipPath id="clippath-20">
      <path class="cls-4" d="M236.42,100.26c-1.68,0-3.04,1.36-3.04,3.04s1.36,3.04,3.04,3.04,3.04-1.36,3.04-3.04-1.36-3.04-3.04-3.04Z"/>
    </clipPath>
    <clipPath id="clippath-21">
      <circle class="cls-4" cx="257.86" cy="129.9" r="4.13"/>
    </clipPath>
    <clipPath id="clippath-22">
      <circle class="cls-4" cx="268.07" cy="153.89" r="3.04"/>
    </clipPath>
    <clipPath id="clippath-23">
      <path class="cls-4" d="M187.39,138.12c-2.28,0-4.13,1.85-4.13,4.13s1.85,4.13,4.13,4.13,4.13-1.85,4.13-4.13-1.85-4.13-4.13-4.13Z"/>
    </clipPath>
    <clipPath id="clippath-24">
      <circle class="cls-4" cx="117.98" cy="171.66" r="4.98"/>
    </clipPath>
    <clipPath id="clippath-25">
      <circle class="cls-4" cx="39.28" cy="83.15" r="4.13"/>
    </clipPath>
    <clipPath id="clippath-26">
      <path class="cls-4" d="M150.25,130.9c-5.18,0-9.38,4.2-9.38,9.38s4.2,9.38,9.38,9.38,9.38-4.2,9.38-9.38-4.2-9.38-9.38-9.38Z"/>
    </clipPath>
    <linearGradient id="_未命名的渐变_90-2" data-name="未命名的渐变 90" y1="145.73" y2="145.73" xlink:href="#_未命名的渐变_90"/>
    <linearGradient id="_未命名的渐变_86" data-name="未命名的渐变 86" x1="137.02" y1="273.74" x2="296.58" y2="215.67" gradientUnits="userSpaceOnUse">
      <stop offset="0" stop-color="#6f92cc"/>
      <stop offset=".63" stop-color="#8472b4"/>
      <stop offset="1" stop-color="#8e66ab"/>
    </linearGradient>
    <linearGradient id="_未命名的渐变_51" data-name="未命名的渐变 51" x1="318.09" y1="187.08" x2="379.89" y2="80.04" gradientUnits="userSpaceOnUse">
      <stop offset="0" stop-color="#9770b1"/>
      <stop offset=".18" stop-color="#8562aa"/>
      <stop offset=".5" stop-color="#6a4ea0"/>
      <stop offset=".78" stop-color="#59429a"/>
      <stop offset="1" stop-color="#543e98"/>
    </linearGradient>
  </defs>
  <g>
    <g class="cls-6">
      <path class="cls-2" d="M277.41,155.61c2.48,8.64-.35,15.7-2.9,27.97-2.99,14.33-9.07,26.98-31.16,45.42-28.25,23.59-85.64,24.65-156.06-13.73C30.44,184.29-9.05,133.57,31.3,76.9c16.55-23.24,76.77-43.57,142.64-19.53,8.39,3.06,85.51,35.72,103.46,98.23Z"/>
    </g>
    <g class="cls-8">
      <path class="cls-2" d="M277.41,155.61c2.48,8.64-.35,15.7-2.9,27.97-2.99,14.33-9.07,26.98-31.16,45.42-28.25,23.59-85.64,24.65-156.06-13.73C30.44,184.29-9.05,133.57,31.3,76.9c16.55-23.24,76.77-43.57,142.64-19.53,8.39,3.06,85.51,35.72,103.46,98.23Z"/>
    </g>
    <g class="cls-11">
      <path class="cls-2" d="M277.41,155.61c2.48,8.64-.35,15.7-2.9,27.97-2.99,14.33-9.07,26.98-31.16,45.42-28.25,23.59-85.64,24.65-156.06-13.73C30.44,184.29-9.05,133.57,31.3,76.9c16.55-23.24,76.77-43.57,142.64-19.53,8.39,3.06,85.51,35.72,103.46,98.23Z"/>
    </g>
    <g class="cls-10">
      <path class="cls-2" d="M277.41,155.61c2.48,8.64-.35,15.7-2.9,27.97-2.99,14.33-9.07,26.98-31.16,45.42-28.25,23.59-85.64,24.65-156.06-13.73C30.44,184.29-9.05,133.57,31.3,76.9c16.55-23.24,76.77-43.57,142.64-19.53,8.39,3.06,85.51,35.72,103.46,98.23Z"/>
    </g>
    <g class="cls-9">
      <path class="cls-2" d="M277.41,155.61c2.48,8.64-.35,15.7-2.9,27.97-2.99,14.33-9.07,26.98-31.16,45.42-28.25,23.59-85.64,24.65-156.06-13.73C30.44,184.29-9.05,133.57,31.3,76.9c16.55-23.24,76.77-43.57,142.64-19.53,8.39,3.06,85.51,35.72,103.46,98.23Z"/>
    </g>
    <g class="cls-15">
      <path class="cls-2" d="M277.41,155.61c2.48,8.64-.35,15.7-2.9,27.97-2.99,14.33-9.07,26.98-31.16,45.42-28.25,23.59-85.64,24.65-156.06-13.73C30.44,184.29-9.05,133.57,31.3,76.9c16.55-23.24,76.77-43.57,142.64-19.53,8.39,3.06,85.51,35.72,103.46,98.23Z"/>
    </g>
    <g class="cls-14">
      <path class="cls-2" d="M277.41,155.61c2.48,8.64-.35,15.7-2.9,27.97-2.99,14.33-9.07,26.98-31.16,45.42-28.25,23.59-85.64,24.65-156.06-13.73C30.44,184.29-9.05,133.57,31.3,76.9c16.55-23.24,76.77-43.57,142.64-19.53,8.39,3.06,85.51,35.72,103.46,98.23Z"/>
    </g>
    <g class="cls-12">
      <path class="cls-2" d="M277.41,155.61c2.48,8.64-.35,15.7-2.9,27.97-2.99,14.33-9.07,26.98-31.16,45.42-28.25,23.59-85.64,24.65-156.06-13.73C30.44,184.29-9.05,133.57,31.3,76.9c16.55-23.24,76.77-43.57,142.64-19.53,8.39,3.06,85.51,35.72,103.46,98.23Z"/>
    </g>
    <g class="cls-13">
      <path class="cls-2" d="M277.41,155.61c2.48,8.64-.35,15.7-2.9,27.97-2.99,14.33-9.07,26.98-31.16,45.42-28.25,23.59-85.64,24.65-156.06-13.73C30.44,184.29-9.05,133.57,31.3,76.9c16.55-23.24,76.77-43.57,142.64-19.53,8.39,3.06,85.51,35.72,103.46,98.23Z"/>
    </g>
    <g class="cls-16">
      <path class="cls-2" d="M277.41,155.61c2.48,8.64-.35,15.7-2.9,27.97-2.99,14.33-9.07,26.98-31.16,45.42-28.25,23.59-85.64,24.65-156.06-13.73C30.44,184.29-9.05,133.57,31.3,76.9c16.55-23.24,76.77-43.57,142.64-19.53,8.39,3.06,85.51,35.72,103.46,98.23Z"/>
    </g>
    <g class="cls-27">
      <path class="cls-2" d="M277.41,155.61c2.48,8.64-.35,15.7-2.9,27.97-2.99,14.33-9.07,26.98-31.16,45.42-28.25,23.59-85.64,24.65-156.06-13.73C30.44,184.29-9.05,133.57,31.3,76.9c16.55-23.24,76.77-43.57,142.64-19.53,8.39,3.06,85.51,35.72,103.46,98.23Z"/>
    </g>
    <g class="cls-32">
      <path class="cls-2" d="M277.41,155.61c2.48,8.64-.35,15.7-2.9,27.97-2.99,14.33-9.07,26.98-31.16,45.42-28.25,23.59-85.64,24.65-156.06-13.73C30.44,184.29-9.05,133.57,31.3,76.9c16.55-23.24,76.77-43.57,142.64-19.53,8.39,3.06,85.51,35.72,103.46,98.23Z"/>
    </g>
    <g class="cls-26">
      <path class="cls-2" d="M277.41,155.61c2.48,8.64-.35,15.7-2.9,27.97-2.99,14.33-9.07,26.98-31.16,45.42-28.25,23.59-85.64,24.65-156.06-13.73C30.44,184.29-9.05,133.57,31.3,76.9c16.55-23.24,76.77-43.57,142.64-19.53,8.39,3.06,85.51,35.72,103.46,98.23Z"/>
    </g>
    <g class="cls-25">
      <path class="cls-2" d="M277.41,155.61c2.48,8.64-.35,15.7-2.9,27.97-2.99,14.33-9.07,26.98-31.16,45.42-28.25,23.59-85.64,24.65-156.06-13.73C30.44,184.29-9.05,133.57,31.3,76.9c16.55-23.24,76.77-43.57,142.64-19.53,8.39,3.06,85.51,35.72,103.46,98.23Z"/>
    </g>
    <g class="cls-24">
      <path class="cls-2" d="M277.41,155.61c2.48,8.64-.35,15.7-2.9,27.97-2.99,14.33-9.07,26.98-31.16,45.42-28.25,23.59-85.64,24.65-156.06-13.73C30.44,184.29-9.05,133.57,31.3,76.9c16.55-23.24,76.77-43.57,142.64-19.53,8.39,3.06,85.51,35.72,103.46,98.23Z"/>
    </g>
    <g class="cls-28">
      <path class="cls-2" d="M277.41,155.61c2.48,8.64-.35,15.7-2.9,27.97-2.99,14.33-9.07,26.98-31.16,45.42-28.25,23.59-85.64,24.65-156.06-13.73C30.44,184.29-9.05,133.57,31.3,76.9c16.55-23.24,76.77-43.57,142.64-19.53,8.39,3.06,85.51,35.72,103.46,98.23Z"/>
    </g>
    <g class="cls-30">
      <path class="cls-2" d="M277.41,155.61c2.48,8.64-.35,15.7-2.9,27.97-2.99,14.33-9.07,26.98-31.16,45.42-28.25,23.59-85.64,24.65-156.06-13.73C30.44,184.29-9.05,133.57,31.3,76.9c16.55-23.24,76.77-43.57,142.64-19.53,8.39,3.06,85.51,35.72,103.46,98.23Z"/>
    </g>
    <g class="cls-29">
      <path class="cls-2" d="M277.41,155.61c2.48,8.64-.35,15.7-2.9,27.97-2.99,14.33-9.07,26.98-31.16,45.42-28.25,23.59-85.64,24.65-156.06-13.73C30.44,184.29-9.05,133.57,31.3,76.9c16.55-23.24,76.77-43.57,142.64-19.53,8.39,3.06,85.51,35.72,103.46,98.23Z"/>
    </g>
    <g class="cls-33">
      <path class="cls-2" d="M277.41,155.61c2.48,8.64-.35,15.7-2.9,27.97-2.99,14.33-9.07,26.98-31.16,45.42-28.25,23.59-85.64,24.65-156.06-13.73C30.44,184.29-9.05,133.57,31.3,76.9c16.55-23.24,76.77-43.57,142.64-19.53,8.39,3.06,85.51,35.72,103.46,98.23Z"/>
    </g>
    <g class="cls-31">
      <path class="cls-2" d="M277.41,155.61c2.48,8.64-.35,15.7-2.9,27.97-2.99,14.33-9.07,26.98-31.16,45.42-28.25,23.59-85.64,24.65-156.06-13.73C30.44,184.29-9.05,133.57,31.3,76.9c16.55-23.24,76.77-43.57,142.64-19.53,8.39,3.06,85.51,35.72,103.46,98.23Z"/>
    </g>
    <g class="cls-17">
      <path class="cls-2" d="M277.41,155.61c2.48,8.64-.35,15.7-2.9,27.97-2.99,14.33-9.07,26.98-31.16,45.42-28.25,23.59-85.64,24.65-156.06-13.73C30.44,184.29-9.05,133.57,31.3,76.9c16.55-23.24,76.77-43.57,142.64-19.53,8.39,3.06,85.51,35.72,103.46,98.23Z"/>
    </g>
    <g class="cls-18">
      <path class="cls-2" d="M277.41,155.61c2.48,8.64-.35,15.7-2.9,27.97-2.99,14.33-9.07,26.98-31.16,45.42-28.25,23.59-85.64,24.65-156.06-13.73C30.44,184.29-9.05,133.57,31.3,76.9c16.55-23.24,76.77-43.57,142.64-19.53,8.39,3.06,85.51,35.72,103.46,98.23Z"/>
    </g>
    <g class="cls-21">
      <path class="cls-2" d="M277.41,155.61c2.48,8.64-.35,15.7-2.9,27.97-2.99,14.33-9.07,26.98-31.16,45.42-28.25,23.59-85.64,24.65-156.06-13.73C30.44,184.29-9.05,133.57,31.3,76.9c16.55-23.24,76.77-43.57,142.64-19.53,8.39,3.06,85.51,35.72,103.46,98.23Z"/>
    </g>
    <g class="cls-20">
      <path class="cls-2" d="M277.41,155.61c2.48,8.64-.35,15.7-2.9,27.97-2.99,14.33-9.07,26.98-31.16,45.42-28.25,23.59-85.64,24.65-156.06-13.73C30.44,184.29-9.05,133.57,31.3,76.9c16.55-23.24,76.77-43.57,142.64-19.53,8.39,3.06,85.51,35.72,103.46,98.23Z"/>
    </g>
    <g class="cls-19">
      <path class="cls-2" d="M277.41,155.61c2.48,8.64-.35,15.7-2.9,27.97-2.99,14.33-9.07,26.98-31.16,45.42-28.25,23.59-85.64,24.65-156.06-13.73C30.44,184.29-9.05,133.57,31.3,76.9c16.55-23.24,76.77-43.57,142.64-19.53,8.39,3.06,85.51,35.72,103.46,98.23Z"/>
    </g>
    <g class="cls-22">
      <path class="cls-2" d="M277.41,155.61c2.48,8.64-.35,15.7-2.9,27.97-2.99,14.33-9.07,26.98-31.16,45.42-28.25,23.59-85.64,24.65-156.06-13.73C30.44,184.29-9.05,133.57,31.3,76.9c16.55-23.24,76.77-43.57,142.64-19.53,8.39,3.06,85.51,35.72,103.46,98.23Z"/>
    </g>
    <g class="cls-23">
      <path class="cls-5" d="M277.41,155.25c2.48,8.64-.35,15.7-2.9,27.97-2.99,14.33-9.07,26.98-31.16,45.42-28.25,23.59-85.64,24.65-156.06-13.73C30.44,183.93-9.05,133.21,31.3,76.54c16.55-23.24,76.77-43.57,142.64-19.53,8.39,3.06,85.51,35.72,103.46,98.23Z"/>
    </g>
    <path class="cls-1" d="M268.4,177.63c-6.3-4.66-6.64-20.54-30.93-20.54-82.84,0-99.48,88.78-98.96,108.33.15,5.6-.01,22.75,13,39.55,27.01,34.88,59.31,26.68,68.03,24.83,17.03-3.61,28.25-14.72,35.44-22.85,34.89-39.45,33.37-89.58,33.37-89.58,3.29-45.37-11-33.1-19.96-39.73ZM162.66,239.88c-1.68,0-3.04-1.36-3.04-3.04s1.36-3.04,3.04-3.04,3.04,1.36,3.04,3.04-1.36,3.04-3.04,3.04ZM190.51,244.55c-3.1,0-5.61-2.51-5.61-5.61s2.51-5.61,5.61-5.61,5.61,2.51,5.61,5.61-2.51,5.61-5.61,5.61ZM200.68,208.44c-5.81.37-10.83-4.04-11.2-9.85-.37-5.81,4.04-10.83,9.85-11.2,5.81-.37,10.83,4.04,11.2,9.85.37,5.81-4.04,10.83-9.85,11.2ZM224.79,234.3c-1.11.86-2.7.65-3.56-.46-.86-1.11-.65-2.7.46-3.56,1.11-.86,2.7-.65,3.56.46.86,1.11.65,2.7-.46,3.56ZM230.17,181.81c-2.83,0-5.12-2.29-5.12-5.12s2.29-5.12,5.12-5.12,5.12,2.29,5.12,5.12-2.29,5.12-5.12,5.12ZM255.69,212.26c-1.11.86-2.7.65-3.56-.46-.86-1.11-.65-2.7.46-3.56,1.11-.86,2.7-.65,3.56.46.86,1.11.65,2.7-.46,3.56ZM264.27,193.41c-1.11.86-2.7.65-3.56-.46-.86-1.11-.65-2.7.46-3.56,1.11-.86,2.7-.65,3.56.46.86,1.11.65,2.7-.46,3.56Z"/>
    <path class="cls-3" d="M305.44,164.23s4.99-3.8-2.73-6.44c0,0-9.06-1.81-6.05-17.58,0,0,5.4-40.59,33.54-60.13,0,0,33.28-28.74,63.03,16.45,11.7,17.78,8.36,31.71,7.58,39.96-.34,3.61-8.91,41.85-57.41,51.18,0,0-14.07,4.09-30.66-3.67,0,0-15.69-10.44-7.3-19.76Z"/>
  </g>
  <text class="cls-7" transform="translate(310.43 288.43) scale(.58)"><tspan x="0" y="0">赛陇生物科技</tspan></text>
  <text/>
</svg>